<svg version="1.1" id="Layer_1" xmlns="http://www.w3.org/2000/svg" xmlns:xlink="http://www.w3.org/1999/xlink" x="0px" y="0px"
	 width="100%" viewBox="0 0 300 168" enable-background="new 0 0 300 168" xml:space="preserve">
<path fill="#B6DAE8" opacity="1.000000" stroke="none" 
	d="
M1.277426,88.222977 
	C1.000000,60.028183 1.025284,32.056297 0.952933,4.084666 
	C0.947021,1.799001 1.195248,0.919900 3.909489,0.922457 
	C101.977264,1.014851 200.045166,1.015827 298.112915,0.918995 
	C300.883484,0.916259 301.056366,1.873969 301.043488,4.107218 
	C300.959137,18.758638 301.000000,33.410778 301.000000,48.531342 
	C300.230408,49.735004 299.315552,50.051323 297.899658,49.882347 
	C294.988190,48.868702 292.634674,45.670120 289.397614,49.327068 
	C288.883575,49.643410 288.660675,49.744881 288.076874,49.934624 
	C284.725861,50.316772 282.840546,48.320446 280.820251,46.651756 
	C278.412476,44.663052 276.213257,42.355541 272.552612,41.697418 
	C262.001831,38.921886 251.764343,38.069332 241.305969,39.981129 
	C234.927399,41.147133 234.384735,40.692364 231.291504,34.928059 
	C229.211929,31.052765 226.522018,33.552563 223.601593,34.177124 
	C218.794281,34.948086 214.382416,35.315094 209.544678,34.469841 
	C207.272507,34.600780 205.404037,34.540611 203.153503,34.591633 
	C196.200684,39.895931 186.564407,39.196171 180.668762,46.086639 
	C178.896255,48.158230 175.933975,46.811314 173.712372,45.592049 
	C169.228043,43.130959 164.833252,41.484116 159.661224,44.017521 
	C157.491974,45.080070 154.754730,44.423664 152.273438,44.460228 
	C150.270172,44.489750 148.261475,44.418549 146.697006,46.551849 
	C146.309692,47.635460 145.966705,48.321163 145.241470,49.225815 
	C142.525742,50.731861 140.200058,50.310673 138.745956,48.160229 
	C135.286850,43.044628 130.349854,42.104771 124.746040,42.518734 
	C121.836655,42.733654 118.847939,42.151363 114.969727,43.412918 
	C118.683540,45.874767 122.058189,45.090961 125.147636,45.625614 
	C127.095329,45.962685 130.491882,45.500755 128.272766,49.702003 
	C126.013153,50.680210 124.010818,50.608479 121.581070,50.521980 
	C118.862679,50.402027 116.572266,50.452549 113.861328,50.375553 
	C112.888550,50.306950 112.352081,50.192818 111.474876,49.833824 
	C105.397537,45.460342 99.539345,41.715591 91.898109,42.909813 
	C84.120804,44.125298 80.620293,50.479328 84.839928,56.987041 
	C91.450859,67.182732 85.857872,70.960968 76.673698,70.559372 
	C68.388229,70.197067 61.017284,73.040268 55.461723,80.219269 
	C54.246552,81.005905 53.247833,81.123642 51.835686,80.883202 
	C50.083267,80.175797 49.110374,79.019463 47.678627,77.876701 
	C44.294094,74.509422 44.943623,69.676773 42.050880,66.090080 
	C41.658958,65.660469 41.510590,65.480614 41.167526,65.009735 
	C40.052013,63.111366 39.724846,61.345921 39.697811,59.530556 
	C39.640285,55.667442 37.836040,55.812447 35.479359,57.762741 
	C33.134247,59.703468 30.073343,61.033859 29.221680,64.790634 
	C28.849237,66.040070 28.435575,66.887878 27.713219,67.973450 
	C24.794127,70.539627 21.388609,71.430695 17.998119,73.110634 
	C17.531525,73.457520 17.338280,73.589127 16.839325,73.895821 
	C14.310388,74.621147 13.960904,76.627228 12.919943,78.266998 
	C10.127378,82.665955 7.978517,88.021629 1.277426,88.222977 
z"/>
<path fill="#E0F9FB" opacity="1.000000" stroke="none" 
	d="
M300.742249,66.763443 
	C301.000000,81.687561 301.000000,96.375122 301.000000,111.531342 
	C294.708984,115.753502 292.201477,114.992722 289.206848,108.421890 
	C286.554565,102.602303 282.759186,100.562347 278.061768,102.370796 
	C276.084229,103.132126 274.584290,104.245239 274.266724,106.905304 
	C272.898834,110.574745 270.753143,110.221474 268.391357,108.587532 
	C267.045013,107.656128 266.144043,106.259178 264.792633,104.763824 
	C262.627350,101.353569 262.773254,97.582870 261.264465,93.972939 
	C262.001465,91.117516 262.417969,88.728943 259.560547,87.180000 
	C255.783157,85.132378 252.121964,84.490471 248.577911,88.251740 
	C248.296753,88.725342 248.193436,88.918579 247.934280,89.397804 
	C247.055359,90.983788 246.542053,92.422737 245.094635,93.594147 
	C244.433456,94.199226 244.063477,94.645164 243.882050,95.549438 
	C243.761902,96.281075 243.640182,96.692932 243.312561,97.389397 
	C240.765305,101.387459 236.764114,101.575607 233.043991,102.200287 
	C230.536301,102.621368 228.104828,102.954071 226.260956,105.461639 
	C225.896729,105.911377 225.735779,106.077835 225.299500,106.453308 
	C223.757065,107.579887 221.350616,107.615463 222.393280,110.526199 
	C222.999374,112.465782 222.777405,114.273964 223.876282,116.099411 
	C225.616852,122.301819 224.989548,123.390381 219.308456,124.400139 
	C217.894470,124.651466 216.275116,124.439972 215.798920,126.735626 
	C215.568237,127.816147 215.230713,128.458115 214.459167,129.268890 
	C213.728775,129.763672 213.258209,129.945999 212.382950,130.121490 
	C211.489883,130.211670 210.977448,130.194122 210.085831,130.061203 
	C208.185669,129.560135 206.842987,128.836014 205.604401,127.291061 
	C205.049576,125.966583 205.137756,125.009254 205.894318,123.823151 
	C207.756149,122.222321 210.439468,122.082680 210.991058,119.071671 
	C211.326645,118.373726 211.567368,118.004700 212.060272,117.417618 
	C213.771362,115.666153 213.453094,114.705040 211.087524,114.166679 
	C210.575333,113.981110 210.374130,113.895462 209.890320,113.646591 
	C209.438583,113.350304 209.269455,113.217247 208.875336,112.859741 
	C208.513901,112.479073 208.377487,112.322853 208.037247,111.943314 
	C207.044830,110.880241 206.012619,111.106697 204.717926,111.078125 
	C200.534500,109.776863 197.076569,111.308121 193.313797,112.815933 
	C192.671494,113.266914 192.290436,113.505905 191.600357,113.893417 
	C187.800842,115.632706 185.903305,118.782127 183.557495,121.977715 
	C183.142960,122.375298 182.953445,122.507378 182.443329,122.766815 
	C180.212036,123.355171 178.530014,122.681183 176.991730,121.694069 
	C174.829651,120.306671 173.306656,121.099159 171.750061,123.181717 
	C171.000275,123.961952 170.405884,124.364639 169.379333,124.756493 
	C168.532501,124.906021 168.045044,124.891388 167.220367,124.678299 
	C164.468689,123.085686 164.255508,120.099304 162.503372,118.191284 
	C160.840622,116.380623 159.010040,114.760735 156.074188,114.367126 
	C152.908829,113.259521 149.677399,113.569130 146.871399,111.462784 
	C146.354340,106.014313 149.552490,102.128510 151.610931,97.452942 
	C151.823792,96.902931 151.923492,96.690025 152.215408,96.184479 
	C154.389389,94.053413 156.555725,92.425781 158.724152,90.282593 
	C159.101334,89.841103 159.260818,89.668907 159.684357,89.256844 
	C160.332977,88.720322 160.745987,88.469833 161.529480,88.126205 
	C163.340652,87.609909 164.840454,87.614517 166.713379,87.585037 
	C167.841980,87.583000 168.594284,87.593613 169.721573,87.575287 
	C171.581787,87.459381 173.068710,87.573814 174.915497,87.531769 
	C177.369736,87.889687 178.677750,86.830185 179.653107,85.133347 
	C182.104279,80.869072 185.975204,78.132683 190.301636,75.377251 
	C191.245316,74.858414 191.907562,74.578133 192.900558,74.148285 
	C197.427536,73.201981 197.466171,69.310516 198.676926,66.427734 
	C202.071564,58.345154 206.981140,52.039787 216.523376,50.200367 
	C217.612823,49.956875 218.352509,49.937561 219.462677,50.027641 
	C224.676163,50.403652 228.324753,53.372318 232.555435,55.925987 
	C233.031281,56.297092 233.207642,56.461575 233.599487,56.913822 
	C234.899536,59.997330 236.458847,62.563053 237.858582,65.193146 
	C240.672791,70.481094 244.619720,70.941849 248.926910,66.567787 
	C250.334686,65.138145 251.738495,63.780670 253.439682,62.693928 
	C256.309113,60.860912 259.216766,60.072083 262.290283,62.076469 
	C264.554077,63.552788 265.951447,62.822384 266.981140,60.556522 
	C268.018311,58.274174 269.528168,56.278374 271.245728,54.000198 
	C271.682434,53.585217 271.874756,53.436340 272.387848,53.109352 
	C274.316498,52.319740 275.954590,51.794643 277.936768,51.117317 
	C280.573883,50.484493 282.799255,50.675365 285.321838,51.640945 
	C286.339874,52.053638 286.971130,52.422302 287.973022,52.840706 
	C288.502655,53.105591 288.705933,53.225819 289.181152,53.569237 
	C291.035736,55.987240 293.514557,57.463428 294.684448,60.411457 
	C295.335236,61.694668 295.691406,62.741837 296.299011,64.040817 
	C297.227631,66.108406 299.344482,65.416374 300.742249,66.763443 
z"/>
<path fill="#F3FEFE" opacity="1.000000" stroke="none" 
	d="
M146.695343,110.746376 
	C149.554825,112.337029 152.785080,111.054878 155.588348,112.989914 
	C160.207581,116.356903 163.788071,120.250420 165.780960,125.831551 
	C166.391525,128.280716 166.337936,130.254440 164.322311,132.079468 
	C163.804245,132.427933 163.586380,132.548019 163.025513,132.797653 
	C162.449936,132.984772 162.217361,133.042358 161.635223,133.152222 
	C160.831848,133.243637 160.377304,133.268219 159.598938,133.295120 
	C158.242569,133.357468 157.203293,133.377808 156.077988,134.242188 
	C155.651947,134.545425 155.479980,134.667130 155.045837,134.969894 
	C153.258575,136.019867 152.318192,137.617294 150.431335,138.562698 
	C149.299789,139.080261 148.425232,139.301025 147.194916,139.493042 
	C146.159149,139.457764 145.555237,139.175690 144.782349,138.512268 
	C143.616806,136.393967 142.680801,136.459991 141.545868,138.550568 
	C137.394638,142.114914 137.172501,142.103714 134.121918,138.105713 
	C130.969971,133.974884 127.670509,130.102737 121.418488,130.390198 
	C120.370583,130.419724 119.673973,130.390610 118.635033,130.409241 
	C116.118317,130.399048 114.704514,131.759430 113.221199,133.097763 
	C111.174416,134.944504 112.133888,136.135498 114.210632,137.482910 
	C114.621712,137.921310 114.770454,138.114243 115.099457,138.628937 
	C116.948944,141.933884 119.725594,144.323822 120.095039,148.004501 
	C120.277885,149.826050 120.691574,151.938507 118.948364,153.014282 
	C116.759575,154.365021 115.868698,152.047455 114.424042,150.559052 
	C114.005066,150.123596 113.835602,149.953888 113.433235,149.515594 
	C109.030571,144.642151 103.147263,143.313187 97.407104,140.940704 
	C96.939285,140.567429 96.769073,140.395050 96.415558,139.905457 
	C95.961342,138.895752 95.858437,138.174042 95.889519,137.074371 
	C96.070068,136.064499 96.408051,135.502777 96.693596,134.908295 
	C97.496246,133.237259 101.139496,133.526230 100.002022,130.778809 
	C98.834610,127.959106 96.416107,125.120247 93.453819,125.318275 
	C86.239471,125.800560 83.578087,122.229950 81.434235,115.941818 
	C79.454803,110.136002 73.320122,110.340660 70.050995,115.669449 
	C69.009117,117.367744 68.478523,119.313507 67.188210,121.261795 
	C65.508766,122.606659 65.161476,124.001953 65.850479,126.025208 
	C65.998878,127.114563 65.919609,127.835236 65.469727,128.857361 
	C64.876678,129.507278 64.427589,129.726639 63.546875,129.869247 
	C61.280991,129.714844 59.895149,128.730698 58.682873,126.877548 
	C58.346645,126.128311 58.226391,125.684464 58.136646,124.907104 
	C58.034363,123.649300 58.162556,122.586006 56.488655,122.425064 
	C55.343731,122.363792 54.502407,122.333595 53.330956,122.363960 
	C52.340767,122.403923 51.678646,122.404778 50.685104,122.453873 
	C47.627277,122.962715 46.190662,124.863556 45.326580,127.260414 
	C44.707863,128.976685 43.904690,130.552002 42.459133,132.161362 
	C41.772087,132.589096 41.332157,132.728439 40.522247,132.799316 
	C36.753906,131.882355 34.451588,132.784561 33.832531,136.956543 
	C33.426861,137.950470 33.033566,138.543884 32.281803,139.312500 
	C30.354685,140.511383 28.476774,140.218781 26.700539,140.507462 
	C24.402262,140.880951 23.336178,142.604263 23.049786,144.638031 
	C22.710554,147.047028 24.984600,147.069366 26.413982,147.410889 
	C28.656153,147.946609 30.984430,148.105927 33.201363,149.758972 
	C33.655895,150.529297 33.742298,151.034409 33.606251,151.950912 
	C28.656849,154.708481 23.322201,153.072128 17.934990,154.146027 
	C15.965266,153.682343 15.049356,152.529251 14.443175,151.151657 
	C13.085211,148.065582 10.800618,146.224747 7.501964,145.522659 
	C4.256759,144.831940 2.690181,142.364670 1.249105,139.280548 
	C1.000000,133.977905 1.000000,128.955811 1.000000,123.466858 
	C3.741660,120.612000 7.040947,120.496910 10.389618,120.804939 
	C15.585322,121.282867 20.891047,117.126617 21.529583,111.790108 
	C21.904909,108.653366 22.428736,105.551598 23.171129,102.494072 
	C24.710638,96.153618 28.672369,92.408424 35.084976,91.612579 
	C37.939735,91.258286 39.693081,90.060677 40.656197,87.040314 
	C41.757046,84.730690 43.489620,83.358170 44.966980,81.334076 
	C45.367680,80.891144 45.542522,80.727249 46.018501,80.367035 
	C47.639584,79.595512 48.962654,79.040520 50.728619,79.750824 
	C52.069965,79.977234 53.130104,79.987221 54.587608,79.982903 
	C56.005562,78.991096 57.098671,79.409195 58.499878,79.950241 
	C59.000019,80.221710 59.190742,80.344971 59.638000,80.688881 
	C61.639107,82.866638 62.778732,85.269371 64.754410,87.439041 
	C65.115761,87.809616 65.261948,87.955872 65.644768,88.296463 
	C66.440811,88.879883 67.014397,88.827103 67.894165,88.400085 
	C68.403687,88.175652 68.614357,88.096916 69.155540,87.935333 
	C72.849739,87.320587 75.622757,88.261993 78.077858,90.730293 
	C84.072334,96.757034 85.652710,96.513420 89.771538,89.305771 
	C90.101509,88.728333 90.451889,88.160530 90.866570,87.231384 
	C91.588303,85.888618 92.237595,84.915955 93.255386,83.774170 
	C94.645348,82.691635 95.680023,81.741562 96.922440,80.476410 
	C97.660088,80.020470 98.122520,79.834328 98.976776,79.605087 
	C102.395554,78.458542 105.518784,78.372063 109.065689,78.834320 
	C110.451790,79.135300 111.405663,79.508377 112.694611,80.042160 
	C117.589516,83.487251 121.283981,87.473297 122.783493,93.043831 
	C123.735207,96.579338 126.032539,98.706200 129.231491,100.145401 
	C133.261414,101.958466 136.858963,104.436615 138.917664,108.432945 
	C140.788498,112.064568 143.902435,109.942207 146.695343,110.746376 
z"/>
<path fill="#545B67" opacity="1.000000" stroke="none" 
	d="
M1.376717,165.298889 
	C1.000000,164.250000 1.000000,163.500000 1.000000,162.375000 
	C3.787989,159.647568 7.398997,160.139801 10.528286,159.852234 
	C25.597668,158.467331 40.466930,155.609161 55.510803,154.116760 
	C58.033104,153.866531 61.932369,152.433243 62.528961,155.376236 
	C63.081699,158.102890 58.871422,158.312119 56.536613,159.264603 
	C56.191074,159.405579 55.893433,159.421158 55.993179,159.303299 
	C73.283386,157.593811 90.935684,158.894836 108.893829,157.583710 
	C113.214943,157.945389 116.806587,156.596329 120.318848,155.229004 
	C131.236832,150.978638 142.577103,148.069489 154.054657,144.359894 
	C156.295731,143.639709 158.241455,143.252289 160.170135,142.830246 
	C165.522003,141.659134 166.332581,142.653351 164.460922,148.420258 
	C166.778778,147.064087 169.143478,146.256622 170.887695,144.650009 
	C176.801849,139.202377 183.301010,139.411942 190.236649,142.121002 
	C191.914322,142.776291 193.621674,143.442200 195.791992,143.736465 
	C198.474182,144.372101 200.761169,145.116257 203.475586,145.653641 
	C204.074112,145.756561 204.312225,145.806885 204.902161,145.954742 
	C208.081726,146.744003 210.705505,148.091034 213.947693,148.702087 
	C214.810562,148.889725 215.274246,149.085266 215.994415,149.601746 
	C216.522232,150.307526 216.635574,150.788773 216.519379,151.655716 
	C213.435135,154.922745 209.633835,156.451065 206.630188,157.926804 
	C212.078873,156.058853 218.607635,155.742111 225.199066,153.961853 
	C227.844559,153.415894 230.221329,153.641342 232.868561,152.831161 
	C243.391281,149.398148 253.710663,150.879120 263.928345,151.842773 
	C268.865417,152.308395 273.545380,151.996704 278.235291,150.697739 
	C280.967926,149.940918 283.729279,149.328506 286.508057,148.780441 
	C295.917145,146.924683 297.792206,148.070374 300.740295,157.661804 
	C301.000000,161.030594 301.000000,164.061188 301.000000,167.545898 
	C299.604614,168.810043 298.186829,168.572586 296.372955,167.879761 
	C287.765747,167.896317 279.585480,165.624847 271.364471,167.197495 
	C268.124329,167.817307 265.137299,166.475998 261.988251,166.480972 
	C240.714264,166.514603 219.440186,166.491669 198.166138,166.508743 
	C196.853043,166.509796 195.483597,166.346252 194.008179,167.596710 
	C193.388733,168.044922 193.119568,168.196106 192.389297,168.412567 
	C180.265335,168.490540 168.602463,168.515137 156.470612,168.380722 
	C153.670197,166.817764 151.128494,166.460327 148.384933,166.465424 
	C106.605652,166.542984 64.822693,166.167313 23.050259,166.744888 
	C15.838161,166.844620 8.796622,167.188095 1.376717,165.298889 
z"/>
<path fill="#ADE8FA" opacity="1.000000" stroke="none" 
	d="
M211.730591,129.308990 
	C212.446899,129.026276 212.879990,129.006271 213.638245,128.985809 
	C216.871002,126.966034 220.416046,126.701294 223.938019,125.359749 
	C225.641266,124.732933 227.308868,124.789352 228.369064,123.012215 
	C228.902298,122.523651 229.237686,122.290680 229.834808,121.938904 
	C230.599915,121.453766 230.716843,120.999283 230.318451,120.169785 
	C230.058533,119.710884 229.953125,119.520409 229.710938,119.021423 
	C229.010803,117.010056 227.353027,116.380554 226.201187,115.251862 
	C223.050949,112.164925 223.550079,108.919411 227.636627,107.132034 
	C230.632782,105.821579 233.836838,104.977402 236.692230,102.563248 
	C237.940842,101.934006 238.925873,101.842896 240.289886,101.925735 
	C245.937820,102.631149 246.494720,102.235168 245.395935,97.389702 
	C244.851166,94.987404 245.841278,93.205795 246.785706,90.919952 
	C255.125351,87.366501 262.228119,91.705368 263.045319,100.366631 
	C263.267853,102.725014 262.730194,105.448593 265.805359,107.080795 
	C267.745026,109.110359 269.616852,110.521088 272.015228,111.300911 
	C274.466766,112.098015 275.798004,114.202263 277.144653,116.537247 
	C277.264282,116.752571 277.396942,117.045670 277.396942,117.045670 
	C277.396942,117.045670 277.694061,117.068855 277.586853,116.901672 
	C275.851837,113.763496 274.111847,110.840981 273.256256,107.189651 
	C271.792267,101.491386 276.541840,101.142838 279.488495,100.265625 
	C283.743683,98.998848 287.031128,101.560089 289.457733,105.050728 
	C289.642151,105.315994 289.723358,105.652962 289.852631,105.956566 
	C292.869049,113.041374 292.869049,113.041367 300.588013,112.012749 
	C301.000000,120.687569 301.000000,129.375137 301.000000,138.531342 
	C299.127930,140.365173 296.834045,139.759598 294.773376,140.309799 
	C292.554749,140.902206 290.671600,141.686569 289.772797,144.409119 
	C288.887848,145.569901 287.943115,145.908524 286.512817,146.094788 
	C283.748383,145.840195 281.473663,146.595779 279.223511,147.031738 
	C269.796051,148.858246 260.501282,146.390518 251.134613,146.417908 
	C243.812515,146.439316 236.768845,148.026321 229.666901,149.376190 
	C228.024796,149.688309 226.435028,150.347290 224.771667,148.713318 
	C224.174118,147.592361 225.174667,147.336884 225.244202,146.722046 
	C224.885483,146.916733 224.747910,147.346542 224.080750,147.728546 
	C217.781387,149.649628 212.565704,146.421982 207.137207,145.013184 
	C203.953659,144.187012 203.526077,141.098511 205.611694,138.213013 
	C206.768616,136.612396 208.064392,135.135605 208.769791,132.828461 
	C209.419220,131.204895 210.384811,130.345474 211.730591,129.308990 
z"/>
<path fill="#AFE7F8" opacity="1.000000" stroke="none" 
	d="
M42.224899,85.812424 
	C41.811291,90.993950 39.879627,93.469620 34.337849,93.110748 
	C29.429602,92.792908 27.071012,96.914185 25.067593,100.769554 
	C24.548468,101.768562 24.220787,102.987053 24.207603,104.109451 
	C24.123983,111.228661 21.559139,117.286888 16.905119,122.625816 
	C16.019806,123.641418 15.358667,123.711716 14.455366,123.264519 
	C10.279558,121.197197 6.061763,122.270592 1.420599,122.996307 
	C1.000000,112.645775 1.000000,102.291542 1.000000,91.468658 
	C7.538838,87.878288 11.388841,82.410530 14.163823,75.981369 
	C14.626652,74.909081 15.590426,74.207504 16.748192,73.249893 
	C16.998806,72.999138 17.000000,73.000000 16.999660,72.999390 
	C20.051050,71.260269 23.924217,71.257217 26.745411,68.249664 
	C27.245108,67.192734 27.495018,66.390083 27.874195,65.295135 
	C29.419409,63.643047 30.920908,62.393513 32.241364,60.908764 
	C35.537861,57.202103 37.247185,57.443027 39.358280,61.893528 
	C39.884041,63.001907 40.541271,63.805252 41.724312,64.754280 
	C41.995880,65.003036 42.000000,65.000000 41.998489,65.002029 
	C44.342548,68.794922 44.318016,73.473289 46.717594,77.669785 
	C46.974602,78.866905 46.885296,79.650993 46.277550,80.727798 
	C46.051659,81.062286 45.996723,81.006119 46.028221,81.028687 
	C44.410225,82.193977 42.902718,83.452690 42.224899,85.812424 
z"/>
<path fill="#747F8C" opacity="1.000000" stroke="none" 
	d="
M110.219490,158.608704 
	C89.956505,160.813828 69.826958,159.143509 49.779873,161.160843 
	C49.717834,160.716461 49.655796,160.272079 49.593758,159.827698 
	C53.682507,158.516739 57.771255,157.205780 61.860004,155.894836 
	C61.822681,155.591934 61.785358,155.289032 61.748035,154.986130 
	C57.554314,155.474304 53.355141,155.920044 49.167843,156.458221 
	C33.431160,158.480850 17.770998,161.150330 1.449285,162.009491 
	C1.000000,161.555557 1.000000,161.111099 1.000000,160.333328 
	C6.566526,157.149918 12.799039,156.822128 18.753641,155.729721 
	C30.143528,153.640213 41.495728,151.284805 53.354736,149.709686 
	C57.444622,150.350037 61.128937,150.609818 64.981529,148.805527 
	C65.500877,148.592422 65.714470,148.526932 66.257202,148.425858 
	C67.437874,148.404953 68.271637,148.645706 69.439606,148.548401 
	C70.161179,148.395523 70.573334,148.290085 71.306213,148.112549 
	C72.511284,147.871017 73.391502,147.897980 74.578583,148.216003 
	C75.978508,148.912949 77.031189,149.779114 78.624878,148.618744 
	C79.359383,148.352264 79.803169,148.305099 80.589050,148.396057 
	C81.129417,148.567734 81.335258,148.665695 81.824768,148.951111 
	C86.551460,150.936005 91.134834,152.224823 96.179916,152.770142 
	C96.702286,152.523361 96.922012,152.443497 97.492859,152.312927 
	C98.081947,152.279251 98.319923,152.296310 98.904549,152.414093 
	C99.467804,152.622589 99.684402,152.730347 100.203430,153.037857 
	C102.513435,153.999207 104.625092,154.411652 106.662231,155.053665 
	C108.306129,155.571747 110.366585,155.852753 110.219490,158.608704 
z"/>
<path fill="#4B5B66" opacity="1.000000" stroke="none" 
	d="
M1.000000,165.375000 
	C5.374736,165.360336 9.835281,164.159012 14.095007,166.673553 
	C16.356800,168.008698 18.256680,164.868240 20.976074,164.879257 
	C64.180893,165.054291 107.386635,165.002060 150.592163,165.003616 
	C152.622726,165.003693 154.606857,165.134842 155.910706,167.500916 
	C155.241592,168.692184 154.234390,168.434265 152.818420,168.490082 
	C128.465881,168.489578 104.594749,168.491974 80.255821,168.483063 
	C72.578674,167.524841 65.341980,168.124756 57.685196,168.189697 
	C54.957321,168.694824 52.640060,168.403397 49.902283,168.472641 
	C47.187885,167.845810 44.902294,167.820831 42.160965,168.458099 
	C28.421524,168.452393 15.134690,168.568283 1.424114,168.215515 
	C1.000000,167.250000 1.000000,166.500000 1.000000,165.375000 
z"/>
<path fill="#748190" opacity="1.000000" stroke="none" 
	d="
M285.702179,145.166321 
	C286.949188,145.027191 287.801605,144.857986 288.862000,144.435577 
	C292.144287,141.052017 296.064606,140.083481 300.627502,139.902496 
	C301.000000,145.688034 301.000000,151.376083 301.000000,157.532059 
	C298.072876,157.131729 298.401428,154.057281 297.094574,152.095581 
	C295.530518,149.747787 293.974457,148.563507 290.959839,149.415436 
	C286.361908,150.714798 281.553650,151.148804 277.004272,152.765442 
	C269.669983,155.371689 262.130371,153.456116 254.909836,152.600677 
	C247.610199,151.735870 240.808716,152.926224 233.411926,153.956940 
	C231.719223,150.584366 235.052322,151.201828 236.647079,149.883133 
	C237.120087,149.583618 237.313934,149.472488 237.805481,149.210449 
	C238.504639,148.873795 238.913086,148.705032 239.642136,148.453552 
	C240.385391,148.274811 240.817978,148.248688 241.565170,148.357727 
	C242.260513,148.601379 242.601288,148.833206 243.025894,148.867554 
	C243.340347,148.466217 243.513962,148.342834 243.992126,148.105042 
	C247.388672,147.812088 250.529633,148.281525 253.905762,147.240417 
	C254.724304,147.180054 255.190155,147.234741 255.979675,147.481842 
	C259.687958,151.164581 263.337799,148.084732 267.229279,147.963242 
	C273.723114,148.407257 279.546173,146.971161 285.702179,145.166321 
z"/>
<path fill="#AFE8F7" opacity="1.000000" stroke="none" 
	d="
M1.000000,139.468277 
	C4.356033,141.908844 7.685666,144.534027 12.290856,145.716278 
	C14.675253,146.328384 15.534759,150.012833 16.786350,152.877045 
	C18.917229,154.388992 19.283100,155.985275 16.846151,156.543304 
	C11.809360,157.696686 6.784821,159.291107 1.242655,158.336777 
	C1.000000,151.978851 1.000000,145.957703 1.000000,139.468277 
z"/>
<path fill="#B8E3F1" opacity="1.000000" stroke="none" 
	d="
M1.000000,158.333328 
	C6.418383,158.209167 11.626454,156.880676 16.852665,155.755264 
	C17.950855,155.518784 17.610430,154.511917 17.171516,153.423767 
	C22.169735,152.257217 27.290852,151.288666 32.792313,152.199677 
	C35.312511,150.000473 38.275322,149.835236 40.944859,149.045486 
	C46.198704,147.491180 51.748852,147.425522 57.095959,146.221069 
	C58.911087,145.812210 60.741856,146.400894 62.134319,148.378174 
	C60.709087,151.539841 57.860828,150.129471 55.280640,150.786362 
	C38.843361,153.641830 22.808598,156.556793 6.769922,159.450058 
	C5.143993,159.743378 3.494457,159.905838 1.427938,160.064514 
	C1.000000,159.555557 1.000000,159.111099 1.000000,158.333328 
z"/>
<path fill="#8FA7B1" opacity="1.000000" stroke="none" 
	d="
M78.483482,167.711853 
	C103.306190,167.930161 127.678596,167.988480 152.516434,168.092346 
	C153.160873,168.277863 153.339890,168.417847 153.259445,168.778915 
	C102.333336,169.000000 51.666668,169.000000 1.000000,168.500000 
	C14.707992,167.991440 28.415983,167.982895 42.594116,167.922714 
	C44.719723,167.198242 46.442741,167.607071 48.535225,167.710968 
	C51.345539,167.902466 53.757557,167.937302 56.619049,167.920288 
	C64.046532,167.086594 71.045242,167.676147 78.483482,167.711853 
z"/>
<path fill="#ADE8FA" opacity="1.000000" stroke="none" 
	d="
M295.384583,65.261520 
	C294.675232,63.906212 294.343201,62.814957 293.960876,61.382866 
	C294.613708,57.356041 291.522400,56.252113 289.187012,54.246490 
	C288.938965,54.027935 288.475922,54.012379 288.244873,53.996025 
	C287.652740,53.587349 287.359344,53.149616 287.033569,52.280495 
	C286.867371,51.072262 287.043457,50.311207 287.751892,49.309948 
	C288.000000,48.998474 288.492615,48.992096 288.738953,48.990067 
	C291.257111,46.927711 293.735229,47.667809 296.611938,48.725277 
	C298.071808,48.996193 299.136597,48.997231 300.600708,48.999138 
	C301.000000,54.022091 301.000000,59.044186 301.000000,64.533142 
	C299.361816,66.250313 297.589417,66.162544 295.384583,65.261520 
z"/>
<path fill="#8FA6B0" opacity="1.000000" stroke="none" 
	d="
M296.563354,166.937805 
	C297.884888,168.252823 299.128632,167.918976 300.642090,167.999603 
	C300.106995,170.059067 298.311157,168.936554 297.020020,168.939423 
	C262.659241,169.015610 228.298264,169.000000 193.468658,169.000000 
	C192.824936,168.847244 192.649887,168.694473 192.768707,168.354401 
	C193.062576,168.167068 193.024490,168.023743 192.992584,167.956802 
	C194.584930,166.370132 196.610840,166.500580 198.612030,166.500565 
	C219.745041,166.500473 240.884598,166.200455 262.007599,166.661179 
	C269.626587,166.827362 277.263519,165.723709 284.871948,166.969177 
	C288.647461,167.587219 292.414368,166.355972 296.563354,166.937805 
z"/>
<path fill="#B1E0F1" opacity="1.000000" stroke="none" 
	d="
M16.620022,73.006058 
	C14.577913,77.608856 12.302341,82.303238 9.683883,86.797852 
	C8.001842,89.685104 4.507328,89.769020 1.380182,90.992508 
	C1.000000,90.250000 1.000000,89.500000 1.000000,88.375000 
	C6.847440,86.528275 9.665465,81.896881 11.895329,76.979424 
	C12.877202,74.814125 13.722885,73.183517 16.620022,73.006058 
z"/>
<path fill="#8B9DA7" opacity="1.000000" stroke="none" 
	d="
M192.590912,168.116516 
	C193.062576,168.167068 193.020111,168.582687 193.010056,168.791351 
	C179.979111,169.000000 166.958206,169.000000 153.468658,169.000000 
	C153.000000,169.000000 152.995010,168.568314 152.988434,168.353088 
	C153.736328,168.077591 154.490784,168.017303 155.621216,167.910797 
	C168.037888,167.931717 180.078552,167.998840 192.590912,168.116516 
z"/>
<path fill="#B0E5F6" opacity="1.000000" stroke="none" 
	d="
M301.000000,139.750000 
	C297.272766,141.357742 293.545502,142.715469 289.444153,144.127777 
	C289.872070,139.459961 293.534821,137.737076 300.633728,138.957657 
	C301.000000,139.000000 301.000000,139.500000 301.000000,139.750000 
z"/>
<path fill="#B8E8F5" opacity="1.000000" stroke="none" 
	d="
M295.090698,65.369141 
	C296.719452,64.998566 298.431610,64.999672 300.571899,65.000397 
	C301.000000,65.444443 301.000000,65.888893 301.000000,66.666672 
	C299.053772,66.599991 296.711884,68.030449 295.090698,65.369141 
z"/>
<path fill="#ADE8F9" opacity="1.000000" stroke="none" 
	d="
M94.256287,83.882286 
	C93.548340,84.976936 93.021271,85.824036 92.246567,86.837311 
	C91.641075,87.350418 91.269630,87.686569 90.946289,88.064735 
	C85.552795,94.372765 83.841888,94.690102 76.968330,89.702034 
	C74.524918,87.928879 72.247826,87.587784 69.289215,88.776413 
	C69.009567,89.027222 68.567123,89.071838 68.344795,89.074417 
	C67.376305,89.591942 66.578293,89.805412 65.322479,89.273407 
	C64.954727,89.051521 64.961662,89.035591 64.966492,89.033966 
	C63.420631,86.302689 62.526081,83.105103 59.245209,81.219162 
	C58.958599,81.033401 59.006561,81.017677 58.985718,81.033951 
	C57.710926,79.367058 58.154678,77.712364 59.617935,76.658943 
	C62.918087,74.283119 65.887817,71.647469 70.528137,71.328659 
	C76.196358,70.939232 82.222137,71.674850 87.427094,68.146629 
	C88.904625,67.145073 89.826492,66.600838 88.598381,64.790787 
	C87.754845,63.547520 87.739326,61.946323 87.335403,60.510254 
	C86.203888,56.487209 84.148140,51.645985 88.213837,48.956402 
	C92.818306,45.910404 98.131210,42.308220 104.371063,46.148140 
	C106.190308,47.267681 108.531944,47.309433 110.693497,48.746735 
	C111.445869,48.996918 111.888794,48.998878 112.663895,49.002861 
	C115.412376,50.695793 117.965210,50.141098 120.765854,49.236168 
	C123.045372,49.007484 125.084618,49.005341 127.560867,49.003563 
	C131.479767,52.694061 136.621521,53.832840 140.408752,57.128117 
	C142.275162,58.752075 143.360718,57.446938 143.559097,55.303741 
	C143.739853,53.350822 143.313431,51.291481 144.761230,49.252155 
	C144.996384,48.246887 145.000717,47.500690 145.007355,46.381390 
	C147.333969,44.373951 150.017441,44.591309 152.647720,44.518532 
	C155.915680,44.428116 159.133728,44.747108 162.316055,43.122311 
	C164.827728,41.839924 167.447113,43.185520 169.810287,44.557285 
	C176.997253,48.729111 179.122070,48.476959 185.627838,42.921307 
	C187.643356,41.200142 189.705841,39.202751 192.581589,39.614292 
	C197.499878,40.318142 199.860886,37.597179 201.749054,33.310272 
	C204.044479,33.003727 206.084061,33.001953 208.560730,33.001762 
	C213.371445,36.769432 217.853226,37.530449 222.755234,33.247162 
	C223.984268,32.444042 224.916809,31.760948 225.956131,31.344053 
	C229.859192,29.778450 232.644333,31.249352 232.946426,35.308834 
	C233.184158,38.503738 234.971909,39.251892 237.588638,38.966778 
	C241.501236,38.540466 245.382950,37.824139 249.297501,37.423817 
	C257.332611,36.602104 265.110992,38.151020 272.909119,40.611835 
	C274.402588,42.406624 276.371552,43.027622 277.751587,44.494698 
	C279.492767,46.345657 280.422363,48.258106 278.567261,50.908211 
	C276.866760,52.278511 274.583069,51.648701 273.236725,53.719276 
	C272.993164,53.956650 272.531891,54.011658 272.299988,54.024773 
	C271.895081,54.168713 271.722046,54.299541 271.225891,54.427345 
	C268.972839,53.452202 268.328949,54.506954 267.998535,56.538071 
	C266.506836,60.977077 264.345215,62.878201 259.660400,60.879868 
	C256.086426,59.355381 252.496323,59.608902 250.563431,64.054756 
	C249.902939,65.573936 248.359711,66.519028 246.975174,67.447159 
	C243.101944,70.043594 239.887863,69.407074 237.970993,65.279678 
	C236.700272,62.543575 235.045258,60.092224 233.231171,57.288139 
	C232.968536,57.023960 232.999252,56.999031 232.987732,57.014694 
	C229.140091,54.474236 226.044479,50.399757 220.318787,51.039032 
	C219.238754,51.052559 218.497864,51.049770 217.386520,51.045769 
	C206.783691,51.063629 202.736450,54.229542 199.321136,65.500069 
	C198.214386,69.152359 196.447815,72.134911 193.265015,74.752884 
	C192.529755,75.317101 192.052063,75.623070 191.278214,75.947617 
	C185.872528,75.630165 183.936829,79.836647 181.379776,82.931396 
	C179.801178,84.841942 178.540527,87.005096 176.243195,88.741615 
	C174.282501,88.973335 172.571030,88.965683 170.432220,88.939514 
	C169.270248,88.254387 168.476288,87.930054 167.261658,88.708160 
	C165.301071,88.958435 163.607559,88.992378 161.490814,89.027985 
	C160.813477,89.227829 160.568970,89.437210 160.176575,89.840881 
	C160.019104,90.023972 160.016800,90.006874 160.024048,90.018417 
	C157.577988,91.556290 154.930817,92.852547 153.256363,95.815964 
	C153.041641,96.073975 153.021545,96.535721 153.002121,96.765991 
	C150.138489,99.239067 149.167435,102.752197 147.178238,105.577614 
	C144.202087,109.804886 142.448608,110.130325 138.995270,106.533089 
	C136.540649,103.976166 133.891052,101.886200 130.534668,100.624138 
	C127.283737,99.401711 125.152840,97.014473 123.737350,93.776863 
	C121.536903,88.743835 118.885460,83.972115 113.294426,81.213348 
	C112.132027,80.856651 111.272476,80.711281 110.179184,80.333801 
	C105.297043,75.685081 104.255775,75.716301 99.225571,80.653687 
	C98.539566,80.921211 98.102119,80.950691 97.335983,80.991760 
	C96.137291,81.867477 95.252075,82.716774 94.256287,83.882286 
z"/>
<path fill="#B3E1F0" opacity="1.000000" stroke="none" 
	d="
M110.994438,48.619148 
	C108.185265,49.051392 105.657303,48.910866 103.087410,46.975967 
	C100.751183,45.217003 97.438148,45.052071 94.892090,47.375877 
	C93.841858,48.334438 92.835861,49.121082 91.427040,48.966545 
	C88.750397,48.672947 87.573570,50.252399 87.772285,52.457500 
	C88.176338,56.941502 87.256935,61.965633 91.757057,65.159866 
	C92.558411,65.728676 92.958145,66.318787 92.693474,67.187439 
	C92.376030,68.229309 91.460014,68.568352 90.477509,68.944244 
	C83.351997,71.670357 75.977219,72.638306 68.385162,73.249474 
	C64.590416,73.554970 60.664394,75.980370 58.983646,80.666824 
	C57.866093,80.730392 56.767307,80.410561 55.326748,80.029663 
	C56.761883,72.879257 63.454403,72.395317 68.632225,70.077080 
	C72.304794,68.432785 76.455566,69.067299 80.427040,68.976601 
	C86.485214,68.838249 88.182533,65.835846 85.188766,60.740143 
	C84.440689,59.466827 83.700348,58.188637 82.931259,56.928055 
	C79.063141,50.587933 83.353081,42.685493 90.845207,41.755741 
	C95.418434,41.188210 99.946793,39.349415 103.327728,44.360939 
	C103.611671,44.781830 105.223579,44.117531 106.107849,44.360390 
	C108.238693,44.945629 110.987320,44.923672 110.994438,48.619148 
z"/>
<path fill="#B2E1F1" opacity="1.000000" stroke="none" 
	d="
M144.593719,48.994987 
	C144.985336,51.822922 144.977936,54.652752 144.972137,57.482586 
	C144.968079,59.462009 143.225845,60.781475 142.179153,59.726204 
	C138.027328,55.540348 130.945526,55.578865 128.040375,49.363739 
	C129.082062,46.210335 126.762146,47.099846 125.694763,47.044495 
	C122.224571,46.864559 118.744286,47.236649 115.319603,46.098221 
	C113.812889,45.597359 113.006149,45.004879 113.041435,43.403835 
	C113.086411,41.363007 114.391068,40.995117 116.066689,41.001144 
	C121.226677,41.019714 126.401421,40.777290 131.541504,41.098755 
	C134.808365,41.303062 137.553299,43.212406 139.009781,46.208710 
	C140.162842,48.580799 141.809021,49.290905 144.593719,48.994987 
z"/>
<path fill="#B2E1F1" opacity="1.000000" stroke="none" 
	d="
M201.654922,33.045822 
	C201.510345,39.612690 200.129944,41.007568 193.478592,40.951000 
	C190.814011,40.928345 188.762405,41.580357 186.869980,43.565575 
	C180.562851,50.181965 176.337494,50.593502 168.937943,45.578697 
	C167.072342,44.314339 164.712265,43.140915 162.888306,44.197433 
	C157.402847,47.374828 151.571808,45.392315 145.475647,46.005947 
	C145.134399,45.152870 145.424957,44.128860 146.326050,44.131447 
	C155.742157,44.158459 165.218796,37.890408 174.624359,44.593193 
	C176.734970,46.097290 179.108536,46.282822 181.736954,43.984753 
	C185.527908,40.670242 188.747528,35.720478 195.428757,37.702435 
	C198.381912,38.578476 198.538727,33.692764 201.654922,33.045822 
z"/>
<path fill="#B3E1F0" opacity="1.000000" stroke="none" 
	d="
M41.941658,64.595848 
	C40.017105,65.056984 38.362671,64.643532 38.036385,62.284752 
	C37.853443,60.962231 37.705055,59.455570 35.974037,59.424644 
	C34.491821,59.398159 33.698311,60.678104 33.124622,61.844269 
	C32.206402,63.710781 31.255381,65.371674 28.384953,65.001114 
	C28.590771,61.735256 35.306370,54.990547 38.482346,54.337910 
	C40.771984,53.867413 40.972130,55.268784 40.984791,56.887856 
	C41.004116,59.358967 40.821281,61.849174 41.941658,64.595848 
z"/>
<path fill="#B0E6F4" opacity="1.000000" stroke="none" 
	d="
M277.806427,51.243340 
	C279.436157,48.035267 278.157440,46.007153 275.699829,44.421680 
	C274.599915,43.712086 273.332397,43.194561 273.043884,41.339180 
	C276.071533,40.358791 277.898499,42.511501 280.008148,44.073822 
	C282.356384,45.812790 283.982727,48.628319 287.633362,48.991226 
	C288.000488,49.748772 288.000946,50.499069 288.001953,51.624489 
	C287.600891,52.424854 287.155853,52.784332 286.289062,52.968803 
	C283.646423,52.405525 281.311401,51.676117 278.414368,51.989716 
	C277.870056,51.818584 277.741455,51.654079 277.806427,51.243340 
z"/>
<path fill="#B0E2F3" opacity="1.000000" stroke="none" 
	d="
M222.575592,33.002663 
	C220.036072,39.299145 214.022430,39.604954 209.043594,33.357895 
	C213.381454,33.442581 217.765060,33.618317 222.575592,33.002663 
z"/>
<path fill="#B3E1F0" opacity="1.000000" stroke="none" 
	d="
M46.333302,78.212952 
	C43.311405,74.389305 42.264694,70.238792 41.997589,65.417885 
	C45.051922,65.520859 44.833920,68.341148 45.554989,70.350533 
	C46.269558,72.341782 46.485207,74.512566 47.850143,76.667397 
	C48.181396,78.060066 47.545147,78.356178 46.333302,78.212952 
z"/>
<path fill="#B1E0F1" opacity="1.000000" stroke="none" 
	d="
M26.631401,68.039169 
	C25.599264,72.733810 21.309687,72.151573 17.398163,72.998306 
	C19.222073,69.726143 23.369905,70.083046 26.631401,68.039169 
z"/>
<path fill="#B0E6F4" opacity="1.000000" stroke="none" 
	d="
M296.936035,48.642513 
	C294.630402,48.995537 292.253784,48.995922 289.431213,48.992172 
	C291.143250,43.466175 294.059174,46.498997 296.936035,48.642513 
z"/>
<path fill="#B0DFF3" opacity="1.000000" stroke="none" 
	d="
M120.561279,49.006210 
	C118.705666,52.500927 115.971359,51.432858 113.087524,49.379639 
	C115.369530,49.004189 117.742973,49.003490 120.561279,49.006210 
z"/>
<path fill="#B8E3F1" opacity="1.000000" stroke="none" 
	d="
M45.999840,78.382339 
	C46.550758,77.825577 47.101826,77.651154 47.826904,77.238327 
	C49.091225,77.628113 50.464546,77.904503 50.958469,79.652557 
	C49.600296,80.326027 48.190769,80.684807 46.416451,81.052940 
	C46.034435,80.296417 46.017212,79.530540 45.999840,78.382339 
z"/>
<path fill="#ACE9F9" opacity="1.000000" stroke="none" 
	d="
M168.722687,124.315674 
	C169.486038,123.764137 169.977936,123.485168 171.053497,123.153427 
	C172.492310,123.450592 173.375565,123.364014 174.584595,123.262970 
	C175.119415,123.287392 175.328979,123.318550 175.831299,123.455673 
	C176.975174,124.038773 177.757248,124.694466 179.134277,124.596024 
	C179.652740,124.570648 179.863739,124.556015 180.396759,124.501419 
	C182.134995,124.019897 183.597473,123.780746 185.043213,123.467026 
	C188.788223,122.654427 191.296188,120.647232 191.651337,116.577667 
	C191.783142,115.067467 192.356583,113.716599 193.386185,112.189697 
	C194.008011,111.689835 194.431427,111.547897 195.224274,111.518707 
	C196.572235,111.570351 197.546936,112.317337 198.914764,111.602486 
	C201.142456,111.260574 203.184311,111.878731 205.303345,110.603584 
	C206.570740,110.542084 207.512161,110.093163 208.700562,110.823425 
	C208.965668,111.073410 208.979843,111.538330 208.998047,111.770187 
	C209.149994,112.213913 209.283737,112.425781 209.547760,112.989594 
	C210.632782,115.726387 209.664032,117.580139 207.801453,118.899490 
	C205.262421,120.697990 204.284454,123.095703 204.340515,126.443138 
	C204.243973,127.293175 204.138535,127.766174 203.849640,128.555695 
	C202.165817,130.861679 200.692184,132.861404 201.882050,135.934418 
	C202.089981,136.970779 202.098831,137.671875 201.916992,138.718430 
	C200.568054,141.334564 198.481628,141.617691 196.858795,140.100296 
	C194.809891,138.184555 192.706039,138.129715 190.141632,137.969406 
	C186.121872,137.718155 182.577972,135.945724 180.925201,131.826782 
	C179.465683,132.283951 178.689682,133.444656 177.318298,134.399078 
	C176.332092,134.872726 175.623535,134.946808 174.544800,134.771439 
	C172.964783,133.981125 171.697510,133.351227 170.092987,132.593506 
	C168.887253,131.553223 168.439240,130.381454 167.490356,129.113068 
	C166.853622,127.151421 167.157471,125.736435 168.722687,124.315674 
z"/>
<path fill="#B6E7F4" opacity="1.000000" stroke="none" 
	d="
M113.139389,81.301834 
	C119.179535,80.602982 120.978867,85.997597 123.095436,89.767525 
	C125.938721,94.831833 128.447021,99.440842 134.616486,100.915016 
	C136.900925,101.460869 138.359253,103.639519 139.795547,105.412895 
	C142.038315,108.181999 143.212234,109.078194 145.824966,105.239952 
	C147.721390,102.453979 148.092056,98.102280 152.618027,97.005829 
	C151.078949,101.438057 149.175217,105.879845 147.120117,110.647141 
	C142.374496,113.067284 138.955688,113.036934 136.590073,107.376312 
	C135.135696,103.896202 131.121460,102.297508 127.595390,100.758064 
	C124.610283,99.454803 122.400948,97.664986 121.767990,94.039429 
	C120.841461,88.732246 116.870125,85.240486 113.139389,81.301834 
z"/>
<path fill="#B6E7F4" opacity="1.000000" stroke="none" 
	d="
M232.980438,57.398079 
	C236.416428,57.483723 237.039642,60.646866 238.363342,62.964500 
	C239.495468,64.946739 239.751678,67.805206 242.620926,67.849709 
	C245.866364,67.900063 248.771179,65.523170 249.594315,63.073078 
	C251.670288,56.893963 255.975555,57.816704 259.737122,59.627949 
	C263.908295,61.636410 265.441101,60.098545 266.856018,56.322517 
	C267.994812,55.047066 268.758606,53.757179 270.682678,53.849014 
	C271.177887,54.002319 271.355743,54.005989 271.800873,54.023773 
	C270.483429,57.098663 268.880707,60.150280 267.320618,63.223549 
	C266.346405,65.142738 264.899750,65.251610 263.156250,64.433121 
	C257.169800,61.622746 254.383011,62.133965 250.562698,66.741890 
	C245.453491,72.904434 239.733231,72.483810 236.425568,65.387474 
	C235.256149,62.878593 233.013428,60.800194 232.980438,57.398079 
z"/>
<path fill="#B6E7F4" opacity="1.000000" stroke="none" 
	d="
M193.403244,75.011246 
	C196.959152,69.493042 198.767929,62.947613 201.692703,56.938206 
	C204.742889,50.671108 209.733749,48.539829 216.729156,50.753868 
	C206.098846,53.588280 201.256790,61.859528 198.177185,71.510918 
	C197.366364,74.052017 196.322510,75.162331 193.403244,75.011246 
z"/>
<path fill="#B5E6F2" opacity="1.000000" stroke="none" 
	d="
M266.135498,107.673050 
	C262.820953,108.011162 261.456573,105.927147 261.474976,103.296875 
	C261.545197,93.286835 257.685577,89.713844 247.405304,91.008163 
	C246.663910,90.625999 246.525696,90.170387 246.794098,89.355591 
	C247.018951,89.056099 247.011993,89.022438 247.004166,89.007133 
	C253.152557,84.172157 258.041779,85.225151 261.959045,92.607765 
	C263.586792,96.230026 264.327423,99.704254 265.009827,103.598778 
	C265.862793,104.956848 266.312378,106.063194 266.135498,107.673050 
z"/>
<path fill="#B0E5F6" opacity="1.000000" stroke="none" 
	d="
M193.692047,111.791779 
	C193.735123,112.963936 193.401917,113.908363 193.208206,114.880585 
	C191.507019,123.419113 191.513367,123.415817 182.660370,125.276016 
	C182.014297,125.411766 181.397736,125.687981 180.381409,125.947311 
	C179.830215,125.863548 179.665085,125.731377 179.252197,125.797424 
	C177.868668,125.938225 176.606522,126.157326 176.060684,124.336945 
	C175.920944,121.906250 177.357742,122.110733 178.598557,122.449982 
	C179.594971,122.722412 180.492523,122.895432 181.715210,122.233109 
	C181.988693,122.026489 182.461563,121.985115 182.698776,121.977509 
	C186.337891,119.920464 187.955048,116.274818 190.765106,113.241814 
	C191.314880,112.885277 191.570297,112.694817 191.884262,112.216721 
	C192.388947,111.634140 192.849548,111.491776 193.692047,111.791779 
z"/>
<path fill="#B8E8F5" opacity="1.000000" stroke="none" 
	d="
M236.707367,102.734695 
	C235.627548,106.412857 232.291641,106.927231 229.427505,107.849716 
	C227.571396,108.447540 225.804047,108.941513 225.289673,110.884224 
	C224.703339,113.098595 226.541656,114.073921 228.099564,115.047043 
	C229.389236,115.852608 230.574066,116.734833 230.937805,118.698845 
	C227.764542,120.334473 225.951080,117.589684 223.282104,116.252144 
	C220.646164,115.048439 221.316666,113.347855 221.956879,111.330292 
	C222.144409,109.100273 223.209000,107.715561 224.788528,106.260551 
	C225.033600,106.037437 225.000000,106.001282 225.017944,106.017242 
	C228.149033,102.691017 231.974350,101.603355 236.707367,102.734695 
z"/>
<path fill="#D9FAFD" opacity="1.000000" stroke="none" 
	d="
M223.005890,116.395432 
	C226.144852,115.179153 227.877396,117.864235 230.614120,118.991821 
	C230.966843,119.050209 230.996979,119.524178 231.015503,119.760918 
	C231.584534,120.694725 231.733856,121.463097 231.187164,122.632149 
	C230.500992,122.961655 230.072586,122.968376 229.323013,122.985382 
	C228.098068,123.946449 226.943192,124.421616 225.342346,124.846878 
	C221.840469,125.773972 219.004593,127.727570 215.282394,127.236374 
	C212.935013,123.170319 216.317337,123.062775 218.172012,123.144966 
	C223.221008,123.368675 224.850906,121.539688 223.005890,116.395432 
z"/>
<path fill="#D5FAFD" opacity="1.000000" stroke="none" 
	d="
M266.027771,108.359390 
	C265.650543,106.899582 265.332001,105.797310 265.021912,104.345459 
	C267.218994,104.168015 267.528168,106.469971 268.981812,107.488792 
	C270.292816,108.407654 271.507599,110.114944 272.975464,107.276886 
	C276.361145,109.592712 277.170135,113.665749 278.894409,117.604538 
	C278.559448,118.338600 278.111206,118.486282 277.290405,118.225670 
	C274.658905,115.213829 272.907166,111.783035 268.506439,111.527435 
	C267.317566,111.458389 266.448181,110.053146 266.027771,108.359390 
z"/>
<path fill="#D9FAFD" opacity="1.000000" stroke="none" 
	d="
M262.290161,92.847992 
	C255.385406,86.319931 254.539291,86.076942 247.367706,88.953560 
	C248.508453,85.048615 251.655075,83.285461 255.483139,84.229874 
	C258.734589,85.032036 262.849487,85.458817 263.589203,90.151550 
	C263.773254,91.319221 263.425568,92.040070 262.290161,92.847992 
z"/>
<path fill="#D9FAFD" opacity="1.000000" stroke="none" 
	d="
M201.298508,139.234680 
	C201.019470,138.244385 201.025879,137.501251 201.035095,136.386536 
	C200.953064,133.733810 200.797043,131.436554 202.752655,129.278641 
	C203.018127,128.570206 203.029968,128.143005 203.040558,127.395233 
	C203.647964,126.438560 204.383392,126.287415 205.548157,126.726471 
	C207.061539,127.546974 208.242203,128.146973 209.725113,128.881592 
	C210.635330,130.059052 210.028992,130.893204 209.408112,132.091370 
	C207.472931,135.623016 206.391235,139.580414 201.298508,139.234680 
z"/>
<path fill="#B8E8F5" opacity="1.000000" stroke="none" 
	d="
M246.762451,89.243866 
	C247.014862,89.490356 247.010773,89.924622 247.010742,90.685326 
	C246.929855,93.622040 245.868515,95.984161 247.546753,98.860306 
	C249.407516,102.049225 246.433548,104.226555 241.265350,103.262573 
	C239.938751,100.744827 241.503845,99.225471 242.752197,97.273392 
	C243.011032,96.556847 243.018555,96.116364 243.029129,95.345474 
	C243.034454,94.412384 243.213135,93.872925 243.822510,93.214073 
	C245.721832,92.415024 245.811295,90.715050 246.762451,89.243866 
z"/>
<path fill="#B3E6F4" opacity="1.000000" stroke="none" 
	d="
M205.908234,126.616592 
	C205.170700,126.974060 204.460510,127.001152 203.394806,127.051468 
	C202.716995,123.098412 202.881149,119.423706 207.455185,117.653694 
	C209.084290,117.023262 209.014114,115.276413 209.004669,113.370827 
	C209.175629,112.870903 209.343414,112.760796 209.754852,112.827461 
	C209.998505,113.004242 210.000000,113.000000 209.998199,113.001328 
	C211.576462,114.124229 213.902435,114.662483 213.185974,117.682671 
	C212.637634,118.082184 212.386673,118.265602 212.080246,118.733002 
	C210.723526,120.740494 209.010498,122.077942 207.180298,123.754265 
	C206.100327,124.523796 205.976669,125.387154 205.908234,126.616592 
z"/>
<path fill="#D9FAFD" opacity="1.000000" stroke="none" 
	d="
M242.648010,97.063095 
	C242.432068,98.781174 241.860611,100.565002 241.144897,102.668800 
	C239.935440,102.995407 238.870270,103.002045 237.406006,103.018539 
	C232.980499,102.904564 229.378540,104.421562 225.405594,105.983459 
	C225.779648,102.157021 228.700806,101.404999 232.015961,100.963066 
	C235.704117,100.471420 239.622620,100.420807 242.648010,97.063095 
z"/>
<path fill="#B6E7F4" opacity="1.000000" stroke="none" 
	d="
M176.362991,88.986694 
	C178.261871,83.994354 182.387573,80.324142 185.393219,75.849068 
	C186.465714,74.252251 188.691513,74.856316 190.719620,75.703171 
	C186.889343,79.490150 182.071503,82.288849 179.661255,87.487450 
	C179.125595,88.642776 177.975891,89.007729 176.362991,88.986694 
z"/>
<path fill="#C1E7E8" opacity="1.000000" stroke="none" 
	d="
M165.372253,126.070923 
	C162.637589,121.445351 159.041290,117.787430 155.996552,113.341095 
	C162.264099,113.602814 164.655029,118.303955 166.867432,123.662506 
	C167.055496,124.998428 166.650681,125.746262 165.372253,126.070923 
z"/>
<path fill="#B4E7F2" opacity="1.000000" stroke="none" 
	d="
M194.336121,112.004967 
	C193.558090,112.005043 193.112503,112.003464 192.332779,112.002899 
	C195.967163,110.574203 199.669693,107.606010 204.669128,109.929428 
	C205.222763,110.140648 205.385971,110.303169 205.291458,110.695801 
	C203.992722,114.258507 201.744370,112.909668 199.344254,112.153992 
	C198.313583,112.578331 197.543060,112.741547 196.341766,112.237823 
	C195.555222,112.003143 195.111908,112.003227 194.336121,112.004967 
z"/>
<path fill="#B4E7F2" opacity="1.000000" stroke="none" 
	d="
M190.656006,113.032364 
	C189.574387,116.800774 188.619370,120.990364 183.309753,121.939255 
	C183.881958,117.750031 186.854645,115.207848 190.656006,113.032364 
z"/>
<path fill="#B6E7F4" opacity="1.000000" stroke="none" 
	d="
M220.242615,51.307343 
	C224.574463,49.254673 228.484909,50.847542 232.943176,56.676399 
	C228.376617,56.215805 225.505402,51.461617 220.242615,51.307343 
z"/>
<path fill="#B3E6F2" opacity="1.000000" stroke="none" 
	d="
M181.615189,122.016449 
	C180.874954,125.320351 178.080429,122.260063 176.212097,123.747253 
	C176.001129,123.995811 175.501343,123.996475 175.251450,123.996323 
	C173.962814,122.938423 172.563324,124.164772 171.242889,123.229095 
	C171.013611,123.019417 171.001877,123.003998 170.996277,122.994446 
	C172.258392,119.394157 174.224991,117.903694 177.698914,120.686974 
	C178.715225,121.501221 179.881119,122.049820 181.615189,122.016449 
z"/>
<path fill="#B0E5F6" opacity="1.000000" stroke="none" 
	d="
M214.879959,127.255531 
	C218.070053,126.006844 221.153290,125.016930 224.616486,124.016205 
	C225.347641,124.400887 225.493988,124.861450 225.218979,125.695084 
	C221.916504,128.092911 218.327484,128.464188 214.374161,128.989685 
	C214.233322,128.494995 214.503204,128.004654 214.879959,127.255531 
z"/>
<path fill="#B8E3F1" opacity="1.000000" stroke="none" 
	d="
M165.034607,126.365646 
	C165.541702,125.416832 166.040207,124.858978 166.775955,124.141632 
	C167.453461,123.994606 167.893723,124.007072 168.664047,124.031326 
	C168.665939,125.450233 168.337753,126.857361 168.003998,128.631073 
	C168.115479,129.771179 168.109879,130.537720 167.702454,131.647049 
	C166.221756,133.575104 164.814240,134.600494 162.962997,132.386780 
	C164.881287,130.715149 165.302856,128.871063 165.034607,126.365646 
z"/>
<path fill="#B6E7F4" opacity="1.000000" stroke="none" 
	d="
M288.964783,54.387917 
	C292.237701,54.983646 295.824890,55.695930 294.189209,60.811127 
	C292.270569,58.943985 290.630615,56.845943 288.964783,54.387917 
z"/>
<path fill="#B6E7F4" opacity="1.000000" stroke="none" 
	d="
M153.382187,96.013809 
	C152.907562,91.777542 155.880585,90.682060 159.653809,90.026016 
	C158.671295,92.795654 156.179047,94.355515 153.382187,96.013809 
z"/>
<path fill="#D9FAFD" opacity="1.000000" stroke="none" 
	d="
M224.651276,106.032104 
	C224.754028,107.871529 224.038605,109.476250 222.285324,110.845261 
	C219.005600,108.126152 219.272217,107.545364 224.651276,106.032104 
z"/>
<path fill="#D9FAFD" opacity="1.000000" stroke="none" 
	d="
M213.304291,117.914154 
	C213.036407,115.924446 211.228104,115.020828 210.147049,113.295151 
	C215.173828,113.422539 215.634979,114.032402 213.304291,117.914154 
z"/>
<path fill="#D9FAFD" opacity="1.000000" stroke="none" 
	d="
M207.304474,123.941223 
	C207.397675,121.451683 209.108978,120.043335 211.631378,118.997734 
	C212.361969,122.176270 210.183563,123.189095 207.304474,123.941223 
z"/>
<path fill="#B6E7F4" opacity="1.000000" stroke="none" 
	d="
M277.596344,50.998077 
	C278.000000,50.997105 278.000458,51.490284 277.999573,51.736687 
	C276.859741,53.291382 275.139099,53.289028 273.341034,53.926338 
	C272.772034,50.669155 275.086365,50.981792 277.596344,50.998077 
z"/>
<path fill="#B7EFFD" opacity="1.000000" stroke="none" 
	d="
M209.228180,132.182129 
	C209.237900,131.189575 209.499588,130.392548 209.894318,129.305878 
	C210.468689,129.017288 210.910019,129.018387 211.682587,129.032867 
	C211.972900,130.175735 211.533234,131.088913 210.282257,131.860977 
	C209.825897,132.130035 209.653046,132.253860 209.228180,132.182129 
z"/>
<path fill="#D9FAFD" opacity="1.000000" stroke="none" 
	d="
M205.426605,110.944809 
	C205.033722,110.925911 205.040588,110.452164 205.050064,110.215141 
	C206.307846,110.404190 207.889267,107.988586 208.933594,110.750946 
	C207.916931,111.036835 206.868210,111.000267 205.426605,110.944809 
z"/>
<path fill="#B6E7F4" opacity="1.000000" stroke="none" 
	d="
M167.370560,88.947327 
	C167.561356,86.920494 168.422302,86.246368 169.944153,88.603256 
	C169.252106,88.937386 168.499329,88.953766 167.370560,88.947327 
z"/>
<path fill="#B6E7F4" opacity="1.000000" stroke="none" 
	d="
M286.177551,53.233158 
	C286.471039,52.680122 286.941284,52.364456 287.706970,52.024200 
	C288.004578,52.439800 288.006744,52.879986 288.011353,53.649925 
	C287.460632,53.809963 286.907440,53.640244 286.177551,53.233158 
z"/>
<path fill="#D9FAFD" opacity="1.000000" stroke="none" 
	d="
M243.744812,93.044716 
	C243.857986,93.564766 243.678162,94.112053 243.265259,94.837204 
	C241.956360,94.104820 242.188873,93.477127 243.744812,93.044716 
z"/>
<path fill="#B6E7F4" opacity="1.000000" stroke="none" 
	d="
M160.241425,89.914299 
	C160.214981,89.759499 160.410873,89.495033 160.837158,89.130096 
	C160.939117,89.344704 160.737823,89.603035 160.241425,89.914299 
z"/>
<path fill="#D9FAFD" opacity="1.000000" stroke="none" 
	d="
M209.887909,112.789902 
	C209.998505,113.004242 209.502899,113.001259 209.255371,112.991135 
	C209.007858,112.981018 209.005264,112.491417 209.010742,112.246735 
	C209.327545,112.116753 209.581238,112.307922 209.887909,112.789902 
z"/>
<path fill="#AEE8F8" opacity="1.000000" stroke="none" 
	d="
M62.225090,149.106079 
	C60.138172,147.633316 58.295471,147.269012 55.945869,147.782593 
	C48.636242,149.380264 41.248306,150.619644 33.483292,151.997192 
	C33.033676,151.584961 32.991508,151.173523 32.934227,150.452301 
	C31.535234,148.795975 29.701639,148.382874 27.939251,148.124222 
	C25.744417,147.802109 23.896500,147.304367 24.086346,144.638199 
	C24.258114,142.225861 25.698757,140.701767 28.055468,140.133377 
	C29.172318,139.864044 30.393679,140.154297 31.726986,139.272644 
	C32.151279,138.449158 32.303940,137.890396 32.691917,137.154175 
	C33.339607,133.150970 36.130871,132.404556 39.627937,132.033386 
	C40.435314,131.974747 40.869442,131.971329 41.629181,131.969437 
	C45.483944,129.210999 45.998077,124.271942 49.764404,121.264954 
	C50.755081,121.021965 51.499851,121.019684 52.616470,121.039124 
	C55.959091,123.168968 56.742474,125.827034 55.184509,129.197983 
	C54.301720,131.108078 53.645161,133.111298 54.730324,135.363861 
	C55.239651,135.491226 55.451527,135.513855 55.985874,135.540390 
	C60.134159,134.973404 62.392548,132.288300 64.754089,129.194321 
	C64.992752,128.210373 65.011566,127.477898 65.032135,126.379074 
	C65.085838,124.523560 64.742271,122.990211 65.773987,121.296822 
	C66.931274,119.093864 67.866791,117.187920 68.750336,115.258179 
	C70.166443,112.165268 72.304794,109.873070 75.918526,110.106400 
	C79.817215,110.358109 82.210892,112.890869 83.571663,116.381004 
	C84.171463,117.919388 84.483223,119.571465 84.906235,121.177063 
	C85.469719,123.315804 86.605614,123.963226 88.950928,123.592499 
	C94.610008,122.697960 99.590202,125.637207 102.289978,130.915375 
	C103.213295,132.720520 102.906097,133.708405 100.805504,134.048141 
	C99.322792,134.287933 97.853722,134.675751 97.008385,136.561707 
	C96.228867,137.714645 95.541016,138.519424 96.784866,139.773285 
	C97.007790,139.989319 96.985466,140.042480 96.974907,140.069305 
	C101.229523,142.442505 105.742790,144.291199 110.021927,146.618408 
	C111.162704,147.238815 112.536163,147.432800 113.691963,148.763123 
	C113.946663,149.021774 113.992622,149.010284 113.984894,149.032684 
	C115.392075,150.593399 116.407043,152.220520 114.875458,154.246719 
	C113.604767,155.927780 112.005325,155.189972 110.412132,154.836884 
	C106.916176,154.062195 103.233803,154.564987 99.448471,153.142334 
	C98.914444,152.955780 98.729034,152.960999 98.271332,152.908997 
	C93.588432,151.151413 89.588020,147.176483 83.955505,150.492889 
	C82.892654,150.596451 82.179764,150.492615 81.268265,150.022659 
	C81.061165,149.721161 81.036827,149.391541 81.012329,149.228104 
	C79.750526,147.725357 78.207993,148.270386 76.117615,148.403107 
	C75.296455,148.432693 75.094322,148.435196 74.593193,148.426941 
	C73.724815,148.167816 73.159973,148.157684 72.301453,148.470551 
	C71.177025,148.438324 70.420982,148.796341 69.320953,148.876251 
	C68.468460,148.721176 67.960167,148.509613 67.552498,148.250229 
	C67.329933,148.615433 67.192711,148.730072 66.869522,148.651443 
	C66.683563,148.458160 66.342735,148.460388 66.203491,148.558640 
	C65.956039,148.842667 65.847824,149.028458 65.423157,149.258392 
	C64.741898,149.036789 64.591553,148.637421 64.442825,148.237030 
	C64.017059,148.413315 64.564377,148.829666 63.987129,149.227005 
	C63.293453,149.528137 62.866405,149.498108 62.225090,149.106079 
z"/>
<path fill="#ACE8F8" opacity="1.000000" stroke="none" 
	d="
M117.751007,129.344635 
	C118.763672,129.057190 119.511681,129.034424 120.633835,129.024323 
	C125.999413,130.928299 130.284119,133.963028 133.762375,137.903885 
	C135.737061,140.141205 137.052216,142.122711 140.675720,140.979828 
	C142.908356,140.275635 145.985703,140.511414 145.291260,144.851151 
	C140.422485,146.590179 135.659561,147.604706 131.018509,149.172699 
	C128.223343,150.117050 125.887032,153.343719 122.327667,151.590240 
	C119.093506,149.996964 120.285805,146.233566 118.546448,143.831223 
	C117.365028,142.199463 116.239624,140.631058 114.264725,139.263565 
	C113.973236,139.014450 113.894577,138.622940 113.883270,138.423615 
	C109.706017,133.099335 115.451790,132.132843 117.751007,129.344635 
z"/>
<path fill="#B8E3F1" opacity="1.000000" stroke="none" 
	d="
M114.027878,139.361969 
	C119.389221,139.220032 119.965660,143.760330 120.972969,147.420563 
	C121.930794,150.900955 123.199104,151.655914 126.464294,150.054153 
	C131.997940,147.339630 137.494141,144.258362 144.568542,145.360809 
	C143.493378,148.267120 140.608414,148.456665 138.202499,149.271103 
	C131.335068,151.595749 124.564911,154.186951 117.703857,156.519608 
	C115.200142,157.370850 112.697815,157.674789 109.993408,156.593826 
	C106.639160,155.253143 103.029709,154.631317 99.248322,153.860626 
	C99.082024,153.483597 99.091873,153.217300 99.095871,153.083923 
	C103.023392,152.133438 107.071701,152.497940 110.699036,153.597702 
	C115.835571,155.155045 114.764671,152.571442 114.021011,149.388031 
	C116.309013,149.018127 116.248955,151.685364 117.838280,152.496765 
	C119.754738,148.381638 119.572639,147.763992 114.027878,139.361969 
z"/>
<path fill="#B8E3F1" opacity="1.000000" stroke="none" 
	d="
M144.958527,144.968262 
	C145.096176,140.932968 142.112549,141.747391 140.123993,142.249115 
	C137.910095,142.807693 135.543030,142.718796 134.790359,141.020325 
	C132.427994,135.689407 125.489166,135.605865 123.209343,130.364655 
	C123.016327,129.920914 122.060730,129.808868 121.233688,129.289871 
	C127.990952,128.367599 132.109863,132.563492 135.358734,137.828232 
	C137.104965,140.657959 138.541718,140.560379 140.712708,138.089340 
	C142.003387,137.152100 143.089600,136.923050 144.637421,137.768906 
	C145.466080,138.320999 145.938934,138.612732 146.658508,139.032990 
	C147.993576,139.639908 148.878143,139.364960 149.813568,138.224426 
	C151.603912,136.843658 152.205017,134.628128 154.665756,134.036987 
	C156.090912,135.876221 155.935562,138.223206 157.258087,140.358170 
	C153.883987,143.517044 150.016510,145.080338 145.362305,145.285095 
	C145.048431,145.068573 144.989960,145.000366 144.958527,144.968262 
z"/>
<path fill="#B3E6F2" opacity="1.000000" stroke="none" 
	d="
M157.580154,140.392822 
	C154.536636,139.211716 153.372253,137.562088 154.958832,134.361588 
	C155.000900,134.001831 155.000000,134.000000 155.000732,134.000488 
	C155.984665,133.064819 157.433258,133.210785 158.753464,132.282166 
	C159.443161,132.053864 159.889389,132.035477 160.670624,132.017120 
	C161.179276,132.144104 161.352936,132.271027 161.766647,132.182358 
	C162.006683,131.966766 162.503281,131.958282 162.750977,131.975983 
	C164.432190,133.638077 165.596130,132.882339 166.850769,131.288239 
	C167.996048,130.188995 168.833344,130.419968 169.779449,131.689911 
	C171.433914,132.170319 173.200668,131.482407 173.994965,133.881836 
	C173.716400,136.561111 171.386673,136.313522 169.756256,137.521149 
	C169.238510,137.778000 169.026718,137.875351 168.485764,138.099609 
	C164.659409,138.757614 161.731750,141.729889 157.580154,140.392822 
z"/>
<path fill="#BCE7F3" opacity="1.000000" stroke="none" 
	d="
M69.420807,89.028946 
	C70.817368,85.495285 73.575798,86.937828 76.096649,87.792213 
	C77.313492,88.204636 78.445107,88.993744 79.483200,89.785500 
	C83.005333,92.471878 86.181602,93.219566 88.903175,88.690392 
	C89.351707,87.943962 90.481178,87.606712 91.647446,87.041931 
	C91.638046,90.091728 89.481323,92.367828 88.175682,95.002716 
	C86.867508,97.642700 81.207794,96.826195 78.926949,93.737022 
	C76.618225,90.610107 74.074089,88.268433 69.420807,89.028946 
z"/>
<path fill="#C4EAF1" opacity="1.000000" stroke="none" 
	d="
M31.562908,139.020447 
	C32.904961,141.322983 31.228558,141.016815 29.933125,140.995255 
	C27.467112,140.954254 25.587568,141.907074 25.170994,144.427368 
	C24.634588,147.672638 27.746925,146.733841 29.258232,147.580383 
	C30.382631,148.210205 31.905235,148.112823 32.785652,149.796799 
	C30.355021,149.609222 27.746510,149.227295 25.241693,148.492081 
	C23.424004,147.958542 20.330667,148.304230 21.128609,144.953476 
	C21.768852,142.264908 22.789129,139.479568 26.190596,139.085663 
	C27.816360,138.897400 29.480463,139.040146 31.562908,139.020447 
z"/>
<path fill="#BAE6F1" opacity="1.000000" stroke="none" 
	d="
M55.248405,136.704529 
	C48.620697,135.631805 53.122959,130.927017 53.797501,129.506241 
	C55.302956,126.335350 54.599514,124.234505 53.040993,121.420029 
	C54.041344,121.048759 55.094360,121.036667 56.542206,121.028778 
	C57.704800,121.723099 58.497311,122.392838 58.932213,123.702545 
	C58.971783,124.447540 58.964252,124.886177 58.955521,125.653839 
	C58.543068,129.709869 56.456459,132.880615 55.248405,136.704529 
z"/>
<path fill="#B8E3F1" opacity="1.000000" stroke="none" 
	d="
M113.917542,148.670258 
	C107.439438,149.217377 103.626175,142.833755 97.433006,142.209137 
	C97.250488,142.190720 97.154015,141.319214 96.990883,140.470795 
	C103.252052,141.506638 109.351486,143.304688 113.917542,148.670258 
z"/>
<path fill="#BAE8F5" opacity="1.000000" stroke="none" 
	d="
M99.387215,80.872490 
	C98.895813,76.994843 101.958328,75.702324 104.730919,75.240173 
	C107.149010,74.837097 109.469704,76.366104 109.955917,79.721123 
	C106.539566,80.038910 103.100060,79.522141 99.387215,80.872490 
z"/>
<path fill="#E8FDFE" opacity="1.000000" stroke="none" 
	d="
M55.240433,136.978745 
	C54.701389,132.993927 56.235386,129.580719 58.654461,126.167244 
	C60.147705,126.929253 61.341099,127.875641 62.837463,128.960999 
	C63.936520,130.449554 63.194817,131.374451 62.097805,131.857208 
	C59.764957,132.883804 58.282833,134.867691 56.202942,136.721954 
	C55.935635,136.962265 55.472107,136.971039 55.240433,136.978745 
z"/>
<path fill="#BAE6F1" opacity="1.000000" stroke="none" 
	d="
M56.309944,136.969986 
	C56.296165,132.656525 59.880642,131.477615 63.027962,129.432800 
	C63.547379,129.063034 63.954319,129.026108 64.667603,128.966003 
	C64.637825,134.125214 60.677040,135.567978 56.309944,136.969986 
z"/>
<path fill="#B8E3F1" opacity="1.000000" stroke="none" 
	d="
M117.650139,129.063873 
	C118.038116,130.842194 117.748253,132.480606 115.697845,132.920990 
	C112.740891,133.556076 113.265167,135.470764 113.882812,137.848724 
	C109.515762,137.008728 109.021156,134.984329 112.512009,132.013794 
	C113.964546,130.777756 115.032089,128.977249 117.650139,129.063873 
z"/>
<path fill="#BAE6F1" opacity="1.000000" stroke="none" 
	d="
M49.658440,121.046967 
	C48.246349,125.113205 46.623535,129.297318 42.313179,131.941193 
	C43.885799,127.986801 44.359406,123.019775 49.658440,121.046967 
z"/>
<path fill="#B3E1F0" opacity="1.000000" stroke="none" 
	d="
M59.099541,81.341713 
	C63.574154,81.261444 64.526398,84.552567 64.982040,88.641159 
	C62.134476,87.290863 61.010902,84.219368 59.099541,81.341713 
z"/>
<path fill="#BEE4ED" opacity="1.000000" stroke="none" 
	d="
M39.739525,131.724945 
	C39.012474,135.184204 34.022743,132.683151 33.209389,136.759277 
	C32.889965,132.499115 34.638695,130.146698 39.739525,131.724945 
z"/>
<path fill="#B8E3F1" opacity="1.000000" stroke="none" 
	d="
M42.336308,85.923096 
	C41.973225,83.670868 41.729717,81.142670 45.668159,81.040466 
	C45.849007,83.302162 44.048012,84.390488 42.336308,85.923096 
z"/>
<path fill="#E7FEFE" opacity="1.000000" stroke="none" 
	d="
M144.995026,137.664246 
	C143.925613,138.007599 142.858032,137.985916 141.389862,137.950256 
	C141.212326,136.169479 142.045456,134.563080 143.857452,134.540466 
	C145.407028,134.521118 144.828827,136.260239 144.995026,137.664246 
z"/>
<path fill="#E7FCFE" opacity="1.000000" stroke="none" 
	d="
M149.685516,138.012207 
	C149.913803,139.448090 150.140396,141.176010 148.207642,141.534332 
	C147.104935,141.738770 147.113495,140.600296 146.929169,139.494659 
	C147.445786,138.213852 148.337677,138.007202 149.685516,138.012207 
z"/>
<path fill="#E8FDFE" opacity="1.000000" stroke="none" 
	d="
M65.665901,121.076996 
	C65.862213,122.499886 65.705345,123.989273 65.291183,125.745689 
	C63.657402,124.305496 63.289219,122.656021 65.665901,121.076996 
z"/>
<path fill="#D9FAFB" opacity="1.000000" stroke="none" 
	d="
M97.004555,139.605316 
	C95.897438,139.902466 94.470963,140.235199 94.246140,138.626709 
	C94.060356,137.297577 95.175369,137.088486 96.563248,136.941010 
	C96.949036,137.680908 96.975174,138.451111 97.004555,139.605316 
z"/>
<path fill="#E8FDFE" opacity="1.000000" stroke="none" 
	d="
M59.216042,123.814598 
	C57.984924,123.512611 57.267536,122.787155 56.986473,121.346397 
	C58.481026,121.209511 59.983597,121.426331 59.216042,123.814598 
z"/>
<path fill="#B8E3F1" opacity="1.000000" stroke="none" 
	d="
M158.649658,132.047241 
	C158.753143,134.134247 157.193665,133.975006 155.372269,134.000290 
	C155.626511,132.548569 156.760941,131.945892 158.649658,132.047241 
z"/>
<path fill="#BCE7F3" opacity="1.000000" stroke="none" 
	d="
M94.401993,84.053833 
	C94.024055,82.525589 94.693199,81.450615 96.662491,81.040375 
	C96.900620,82.494995 96.199448,83.531235 94.401993,84.053833 
z"/>
<path fill="#BCE7F3" opacity="1.000000" stroke="none" 
	d="
M65.013779,89.379250 
	C65.745735,89.042564 66.536751,89.033600 67.725113,89.050812 
	C67.443108,90.919258 66.583160,91.887291 65.013779,89.379250 
z"/>
<path fill="#B8E3F1" opacity="1.000000" stroke="none" 
	d="
M161.755753,131.966003 
	C161.736923,132.087524 161.467148,132.208282 161.101501,132.173111 
	C161.172012,131.999878 161.338409,131.982574 161.755753,131.966003 
z"/>
<path fill="#B0E5F6" opacity="1.000000" stroke="none" 
	d="
M208.715027,132.191498 
	C209.146637,131.990784 209.317047,131.994965 209.743103,132.002670 
	C209.783676,134.500610 209.397247,136.817108 207.160904,138.547546 
	C203.935516,141.043289 204.901657,143.438766 208.350769,144.112076 
	C213.581573,145.133209 218.536743,147.810181 224.550812,147.001556 
	C225.338699,149.284195 226.676437,148.895493 228.302246,148.405655 
	C235.986237,146.090546 243.905899,144.392029 251.868317,145.174576 
	C258.184509,145.795319 264.475128,144.713043 270.927338,146.425247 
	C275.375732,147.605713 280.732361,145.363541 285.889954,144.923691 
	C280.422424,148.395035 274.379913,149.848007 267.401489,149.090454 
	C263.509857,149.612045 260.090759,149.801361 256.369812,148.430573 
	C255.548706,148.145432 255.089951,148.100998 254.287537,148.102173 
	C250.519028,149.116089 246.999496,147.675980 243.238312,148.728180 
	C242.905487,148.900986 242.962845,148.852051 242.934326,148.827408 
	C242.764343,148.986862 242.622864,149.170944 242.225204,149.119141 
	C241.521652,148.918320 241.074280,148.953400 240.296722,149.057678 
	C239.711060,149.335052 239.448593,149.533997 238.953186,149.823608 
	C238.727219,149.923508 238.354523,149.916977 238.174774,149.966187 
	C237.428925,150.486160 236.745255,150.683533 235.695663,150.877075 
	C232.705933,150.673630 230.254181,151.238754 227.632050,152.731979 
	C223.555374,152.795853 219.895416,152.477509 216.346161,150.161026 
	C215.738831,149.729065 215.405670,149.587860 214.804733,149.400085 
	C211.287872,149.273163 208.778870,146.793274 205.282394,146.401245 
	C204.996277,146.215179 204.724579,146.227341 204.665771,146.349960 
	C201.898865,145.670685 199.594559,143.861176 196.455582,143.256439 
	C195.925461,143.113907 195.715927,143.049454 195.200073,142.868881 
	C194.298431,142.497391 193.725021,142.195847 192.848511,141.788574 
	C191.429550,141.085556 190.292862,140.534363 188.761627,140.095764 
	C186.819931,139.403061 185.150070,138.900970 183.254593,138.058624 
	C182.353073,137.643555 181.769073,137.330185 180.853989,136.930481 
	C179.330963,136.199539 177.963028,135.834106 177.087265,134.254761 
	C177.724686,131.443710 179.593552,130.254272 181.908554,129.567032 
	C183.068619,129.222656 183.810425,129.379944 183.772583,130.861313 
	C183.679825,134.491226 188.184570,138.268311 191.520935,136.674927 
	C194.213577,135.388931 195.278259,136.008041 196.466324,138.091125 
	C197.417557,139.758926 198.670731,140.514435 200.778458,139.247635 
	C205.113922,138.619980 206.114258,134.752228 208.715027,132.191498 
z"/>
<path fill="#485A65" opacity="1.000000" stroke="none" 
	d="
M296.883453,166.884277 
	C284.690521,168.762314 272.412994,167.877335 260.160217,167.957855 
	C238.075104,168.102982 215.988266,167.980957 193.431412,167.930176 
	C192.859039,165.327820 194.431824,164.979279 196.533249,164.982742 
	C218.699615,165.019333 240.866394,164.933380 263.032288,165.042068 
	C273.535553,165.093567 284.033264,166.474854 294.542633,165.115784 
	C295.618591,164.976639 296.524139,165.282532 296.883453,166.884277 
z"/>
<path fill="#767F8C" opacity="1.000000" stroke="none" 
	d="
M188.650833,139.219803 
	C190.178375,139.545181 191.390900,139.965332 192.816101,140.629089 
	C193.398666,141.419281 194.001678,141.499863 194.842468,141.771790 
	C195.112518,141.898605 195.021179,141.917099 195.045502,141.877350 
	C195.700150,142.587326 196.713928,143.126785 196.228973,144.671448 
	C191.477280,144.744247 187.511826,142.382126 183.061966,141.634476 
	C179.742584,141.076782 177.376495,141.863953 174.805069,143.605865 
	C170.607086,146.449646 166.249557,149.057968 161.245880,152.215912 
	C161.893311,148.628357 165.255859,146.856522 164.374847,143.363327 
	C161.541275,143.926300 158.685333,144.493729 155.425812,145.069977 
	C153.695786,142.188583 155.896317,141.375870 157.788574,141.263702 
	C161.763428,141.028076 164.933044,138.927841 168.640442,137.145218 
	C168.902512,136.852982 168.985703,136.886719 168.941803,136.896042 
	C172.602921,135.802948 176.295349,134.541351 180.593506,136.025604 
	C181.531555,136.197830 182.079926,136.355438 182.827942,136.723175 
	C184.418991,138.569687 186.438400,138.806152 188.650833,139.219803 
z"/>
<path fill="#6F8693" opacity="1.000000" stroke="none" 
	d="
M168.522202,136.877716 
	C166.733078,140.064499 163.671692,141.732788 159.843170,141.981537 
	C157.919388,142.106522 155.804016,141.717117 155.066284,144.689835 
	C153.208176,147.131104 150.513153,147.086105 148.192932,147.693985 
	C137.628418,150.461823 127.385300,154.172348 117.115456,157.822220 
	C115.099358,158.538742 113.058876,159.303055 110.420975,158.940552 
	C107.654892,154.670380 102.555702,156.632355 99.239014,153.849152 
	C101.351433,153.929352 103.650246,154.262009 105.884506,154.842957 
	C111.637955,156.339005 117.098228,156.365555 122.772484,153.837067 
	C129.856308,150.680481 137.292191,148.314026 144.812256,145.337509 
	C148.954285,143.607208 152.860138,142.145828 157.036102,140.419983 
	C161.257141,140.200424 164.383575,137.499039 168.522202,136.877716 
z"/>
<path fill="#797E8B" opacity="1.000000" stroke="none" 
	d="
M225.133453,154.699707 
	C217.420181,156.831894 209.752686,158.548370 202.085175,160.264847 
	C201.918213,159.846985 201.751251,159.429108 201.584274,159.011246 
	C206.146637,156.704330 210.709000,154.397400 215.626465,152.041611 
	C219.452545,151.130402 222.494873,151.988708 225.133453,154.699707 
z"/>
<path fill="#6E818E" opacity="1.000000" stroke="none" 
	d="
M225.507538,155.097290 
	C222.635910,153.120712 219.350891,153.612350 216.326843,152.143890 
	C216.001678,151.521378 216.021759,151.050034 216.056915,150.224457 
	C219.785065,150.557510 223.498108,151.244766 227.611786,151.877304 
	C229.824249,150.208405 232.207581,150.651047 234.676910,150.077271 
	C235.783508,150.043106 236.520645,150.005157 237.626404,149.991318 
	C237.363495,152.574280 234.071701,151.185974 233.066101,153.626587 
	C230.876114,155.822479 228.278625,154.671677 225.507538,155.097290 
z"/>
<path fill="#6E818E" opacity="1.000000" stroke="none" 
	d="
M196.351410,145.139435 
	C195.753159,144.145340 195.503448,143.311813 195.161774,142.157944 
	C198.588593,142.247391 201.847839,143.276581 204.547455,146.128052 
	C201.765320,147.470551 199.307999,145.877075 196.351410,145.139435 
z"/>
<path fill="#6E818E" opacity="1.000000" stroke="none" 
	d="
M205.111664,146.616577 
	C208.530029,145.357132 211.065536,147.892563 214.296631,149.116913 
	C210.920395,150.621002 208.283493,147.983292 205.111664,146.616577 
z"/>
<path fill="#B7E7F0" opacity="1.000000" stroke="none" 
	d="
M225.390045,126.000984 
	C225.000854,125.559067 224.999268,125.115089 224.997070,124.338257 
	C225.825165,122.818367 227.089752,123.039337 228.636505,122.993675 
	C229.209885,125.373901 227.964249,126.191505 225.390045,126.000984 
z"/>
<path fill="#B8E8F5" opacity="1.000000" stroke="none" 
	d="
M231.265732,122.919083 
	C230.956024,122.215950 230.982681,121.476974 231.021667,120.367828 
	C233.204590,120.569504 233.589584,121.492851 231.265732,122.919083 
z"/>
<path fill="#C5F8FE" opacity="1.000000" stroke="none" 
	d="
M276.996704,118.349060 
	C277.418365,118.001396 277.850616,117.993645 278.605530,117.976746 
	C278.861298,118.865128 279.320343,120.143944 278.101898,120.394829 
	C276.975098,120.626862 277.171021,119.408195 276.996704,118.349060 
z"/>
<path fill="#B0E5F6" opacity="1.000000" stroke="none" 
	d="
M224.998901,146.998398 
	C225.333023,146.757660 225.668243,146.518509 226.003479,146.279373 
	C226.085388,146.397156 226.167313,146.514923 226.249237,146.632690 
	C225.987061,146.745895 225.724899,146.859116 225.233154,146.987854 
	C225.003571,147.003372 225.000000,147.000000 224.998901,146.998398 
z"/>
<path fill="#B8E3F1" opacity="1.000000" stroke="none" 
	d="
M84.218521,150.177124 
	C84.306320,147.622971 86.715912,147.121124 87.660645,147.472504 
	C91.157845,148.773178 95.420860,148.606110 97.944290,152.503265 
	C97.834808,152.893875 97.670563,152.935989 97.255569,153.020706 
	C92.482819,153.871796 88.661423,151.222214 84.218521,150.177124 
z"/>
<path fill="#6F8693" opacity="1.000000" stroke="none" 
	d="
M83.625031,149.856903 
	C88.097588,150.794617 92.203865,151.753830 96.657486,152.888184 
	C96.825447,154.464905 95.683456,155.508301 94.686745,154.832901 
	C90.638298,152.089539 85.517365,152.798309 81.238335,150.063721 
	C81.793686,149.773575 82.526215,149.825989 83.625031,149.856903 
z"/>
<path fill="#6C8697" opacity="1.000000" stroke="none" 
	d="
M61.642090,148.965851 
	C62.452450,148.839996 62.900085,148.821701 63.668785,148.699677 
	C64.156319,148.538712 64.322784,148.481461 64.740005,148.341553 
	C65.170998,148.321869 65.351234,148.384857 65.797859,148.552368 
	C63.301754,152.975647 59.030411,151.115768 55.068245,151.014496 
	C57.012608,150.179794 59.145988,149.626602 61.642090,148.965851 
z"/>
<path fill="#6C8697" opacity="1.000000" stroke="none" 
	d="
M66.896759,148.793549 
	C66.683563,148.458160 66.832329,148.182312 66.907684,148.044922 
	C67.138321,147.825989 67.293594,147.744446 67.703522,147.728958 
	C69.381134,147.760437 70.804085,147.725861 72.653946,147.669724 
	C73.080849,147.648178 73.542511,147.625534 73.753647,147.719528 
	C74.150932,147.887787 74.337090,147.962067 74.794266,148.166473 
	C75.065277,148.296600 75.241241,148.679474 75.116142,148.848999 
	C73.927795,149.014267 72.864555,149.010010 71.402588,149.006683 
	C70.782639,149.228470 70.554474,149.441910 70.159737,149.819489 
	C68.958435,149.966095 67.893349,150.019714 66.896759,148.793549 
z"/>
<path fill="#6F8693" opacity="1.000000" stroke="none" 
	d="
M75.059715,149.351532 
	C74.991043,149.018509 75.019417,148.656311 75.042343,148.476456 
	C75.065277,148.296600 75.039787,148.106339 75.016464,148.013245 
	C76.360985,147.112625 77.468376,147.894287 78.804352,148.846313 
	C78.010880,151.638412 76.688377,151.575668 75.059715,149.351532 
z"/>
<path fill="#B8E3F1" opacity="1.000000" stroke="none" 
	d="
M79.334549,149.138123 
	C77.888603,148.838623 76.771164,148.496353 75.323441,148.037109 
	C77.028755,146.450226 78.926109,146.549500 80.827614,148.742371 
	C80.546242,149.074890 80.104652,149.085129 79.334549,149.138123 
z"/>
<path fill="#6F8693" opacity="1.000000" stroke="none" 
	d="
M70.215378,149.881332 
	C70.113953,149.678436 70.305061,149.423859 70.788651,149.117447 
	C70.890236,149.320404 70.699173,149.575073 70.215378,149.881332 
z"/>
<path fill="#415762" opacity="1.000000" stroke="none" 
	d="
M78.622330,167.610352 
	C71.951950,167.902145 64.970108,167.932434 57.528397,167.915588 
	C64.111717,166.158554 71.219406,167.085251 78.622330,167.610352 
z"/>
<path fill="#415762" opacity="1.000000" stroke="none" 
	d="
M48.676529,167.627090 
	C47.255028,167.899109 45.576530,167.930588 43.481148,167.916565 
	C44.738091,166.479919 46.576378,166.906372 48.676529,167.627090 
z"/>
<path fill="#6E818E" opacity="1.000000" stroke="none" 
	d="
M256.068481,148.544861 
	C259.376099,148.462341 262.744690,148.734802 266.527649,149.073181 
	C263.331421,149.347275 259.640320,153.196045 256.068481,148.544861 
z"/>
<path fill="#6E818E" opacity="1.000000" stroke="none" 
	d="
M243.309433,148.930618 
	C246.107651,146.187881 249.713303,148.072372 253.545654,148.074951 
	C250.663254,150.049500 247.146500,148.978378 243.309433,148.930618 
z"/>
<path fill="#6E818E" opacity="1.000000" stroke="none" 
	d="
M242.062256,149.058472 
	C241.969009,148.883240 242.431030,148.763077 242.668427,148.782928 
	C242.789383,149.179123 242.719803,149.637070 242.062256,149.058472 
z"/>
<path fill="#6E818E" opacity="1.000000" stroke="none" 
	d="
M238.977844,149.866989 
	C238.965820,149.672424 239.204437,149.421356 239.704788,149.148590 
	C239.720520,149.354752 239.474503,149.582611 238.977844,149.866989 
z"/>
<path fill="#B0E5F6" opacity="1.000000" stroke="none" 
	d="
M270.937927,53.657722 
	C269.883575,54.644615 268.767151,55.290581 267.325989,55.968807 
	C267.564056,51.995384 268.150940,51.588814 270.937927,53.657722 
z"/>
<path fill="#6F8693" opacity="1.000000" stroke="none" 
	d="
M180.758575,135.809540 
	C177.317383,137.330093 173.444305,136.106308 169.320496,136.936188 
	C170.113205,135.444366 172.005112,135.402481 173.818329,134.466522 
	C174.797882,134.162201 175.530350,134.068665 176.631348,133.948944 
	C178.177887,134.474792 179.355927,135.026840 180.758575,135.809540 
z"/>
<path fill="#B3E6F4" opacity="1.000000" stroke="none" 
	d="
M202.650955,129.062988 
	C202.520493,131.163086 202.034683,133.328751 201.293396,135.754684 
	C199.092361,133.287598 199.778000,131.040787 202.650955,129.062988 
z"/>
<path fill="#B0E5F6" opacity="1.000000" stroke="none" 
	d="
M171.062912,123.344864 
	C172.285950,123.405281 173.805450,121.028534 174.952301,123.681793 
	C173.661255,124.410919 172.221786,126.009338 171.062912,123.344864 
z"/>
<path fill="#B0E5F6" opacity="1.000000" stroke="none" 
	d="
M169.991425,131.647293 
	C169.211227,131.684235 168.424896,131.369858 167.320801,131.026901 
	C167.176346,130.447647 167.349625,129.896957 167.760666,129.171967 
	C169.431610,129.097321 170.012451,129.933853 169.991425,131.647293 
z"/>
<path fill="#B0E5F6" opacity="1.000000" stroke="none" 
	d="
M196.054535,112.331482 
	C196.749084,112.002487 197.499603,112.001923 198.625397,112.002350 
	C198.458511,114.076424 197.606186,114.784111 196.054535,112.331482 
z"/>
<path fill="#B3E6F2" opacity="1.000000" stroke="none" 
	d="
M179.252197,125.996078 
	C179.274033,125.891411 179.543594,125.787170 179.904266,125.839333 
	C179.995361,125.995728 179.499908,125.996513 179.252197,125.996078 
z"/>
<path fill="#B8E3F1" opacity="1.000000" stroke="none" 
	d="
M64.937088,148.098343 
	C64.842957,148.371445 64.695145,148.484024 64.268593,148.596268 
	C64.186600,148.239304 63.884850,147.205826 64.937088,148.098343 
z"/>
<path fill="#B8E3F1" opacity="1.000000" stroke="none" 
	d="
M73.889961,147.688538 
	C73.964783,147.813522 73.502701,147.837875 73.291779,147.743027 
	C73.310219,147.381500 73.554977,147.353302 73.889961,147.688538 
z"/>
<path fill="#B8E3F1" opacity="1.000000" stroke="none" 
	d="
M67.852097,147.669952 
	C67.958176,147.795013 67.480370,147.935715 67.231705,147.921631 
	C67.144310,147.537003 67.398636,147.416122 67.852097,147.669952 
z"/>
<path fill="#C4EAF1" opacity="1.000000" stroke="none" 
	d="
M234.818787,149.826538 
	C232.950272,150.678284 230.854202,151.275543 228.385269,151.847687 
	C229.433807,148.817001 232.347015,150.172333 234.818787,149.826538 
z"/>
<path fill="#6F8693" opacity="1.000000" stroke="none" 
	d="
M188.651184,138.965057 
	C186.522980,140.562073 184.734406,139.448105 183.077362,137.280365 
	C184.797211,137.557251 186.566849,138.181183 188.651184,138.965057 
z"/>
<path fill="#6E818E" opacity="1.000000" stroke="none" 
	d="
M194.941422,141.643997 
	C194.526047,141.736099 193.939590,141.573578 193.190948,141.141876 
	C193.609299,141.044937 194.189804,141.217163 194.941422,141.643997 
z"/>
</svg>